<mxfile host="app.diagrams.net" modified="2023-05-07T19:18:41.005Z" agent="Mozilla/5.0 (Windows NT 10.0; Win64; x64) AppleWebKit/537.36 (KHTML, like Gecko) Chrome/111.0.0.0 Safari/537.36 OPR/97.0.0.0 (Edition Yx GX)" etag="-1u_XpsyR6tZUyzwkYMz" version="21.2.9" type="github">
  <diagram id="C5RBs43oDa-KdzZeNtuy" name="Page-1">
    <mxGraphModel dx="1393" dy="766" grid="1" gridSize="10" guides="1" tooltips="1" connect="1" arrows="1" fold="1" page="1" pageScale="1" pageWidth="413" pageHeight="583" math="0" shadow="0">
      <root>
        <mxCell id="WIyWlLk6GJQsqaUBKTNV-0" />
        <mxCell id="WIyWlLk6GJQsqaUBKTNV-1" parent="WIyWlLk6GJQsqaUBKTNV-0" />
        <mxCell id="4hApF8zxHWb2KSiEJ-X--2" value="Controller" style="shape=module;align=left;spacingLeft=20;align=center;verticalAlign=top;whiteSpace=wrap;html=1;" parent="WIyWlLk6GJQsqaUBKTNV-1" vertex="1">
          <mxGeometry x="404" y="300" width="100" height="50" as="geometry" />
        </mxCell>
        <mxCell id="4hApF8zxHWb2KSiEJ-X--3" value="Console_UI" style="shape=module;align=left;spacingLeft=20;align=center;verticalAlign=top;whiteSpace=wrap;html=1;" parent="WIyWlLk6GJQsqaUBKTNV-1" vertex="1">
          <mxGeometry x="404" y="190" width="100" height="50" as="geometry" />
        </mxCell>
        <mxCell id="4hApF8zxHWb2KSiEJ-X--6" value="GUI" style="shape=module;align=left;spacingLeft=20;align=center;verticalAlign=top;whiteSpace=wrap;html=1;" parent="WIyWlLk6GJQsqaUBKTNV-1" vertex="1">
          <mxGeometry x="560" y="190" width="100" height="50" as="geometry" />
        </mxCell>
        <mxCell id="4hApF8zxHWb2KSiEJ-X--8" value="Debug_Console" style="shape=module;align=left;spacingLeft=20;align=center;verticalAlign=top;whiteSpace=wrap;html=1;" parent="WIyWlLk6GJQsqaUBKTNV-1" vertex="1">
          <mxGeometry x="110" y="300" width="130" height="50" as="geometry" />
        </mxCell>
        <mxCell id="4hApF8zxHWb2KSiEJ-X--10" value="return" style="html=1;verticalAlign=bottom;endArrow=open;dashed=1;endSize=8;edgeStyle=elbowEdgeStyle;elbow=vertical;curved=0;rounded=0;exitX=0.75;exitY=0;exitDx=0;exitDy=0;entryX=0.75;entryY=1;entryDx=0;entryDy=0;" parent="WIyWlLk6GJQsqaUBKTNV-1" source="4hApF8zxHWb2KSiEJ-X--2" target="4hApF8zxHWb2KSiEJ-X--3" edge="1">
          <mxGeometry relative="1" as="geometry">
            <mxPoint x="500" y="260" as="sourcePoint" />
            <mxPoint x="420" y="260" as="targetPoint" />
          </mxGeometry>
        </mxCell>
        <mxCell id="4hApF8zxHWb2KSiEJ-X--16" value="return" style="html=1;verticalAlign=bottom;endArrow=open;dashed=1;endSize=8;edgeStyle=orthogonalEdgeStyle;rounded=0;exitX=1;exitY=0.75;exitDx=0;exitDy=0;entryX=0.75;entryY=1;entryDx=0;entryDy=0;" parent="WIyWlLk6GJQsqaUBKTNV-1" source="4hApF8zxHWb2KSiEJ-X--2" target="4hApF8zxHWb2KSiEJ-X--6" edge="1">
          <mxGeometry x="-0.6612" y="3" relative="1" as="geometry">
            <mxPoint x="530" y="360" as="sourcePoint" />
            <mxPoint x="600" y="260" as="targetPoint" />
            <mxPoint as="offset" />
          </mxGeometry>
        </mxCell>
        <mxCell id="4hApF8zxHWb2KSiEJ-X--21" value="" style="endArrow=open;endFill=1;endSize=12;html=1;rounded=0;exitX=0;exitY=0;exitDx=0;exitDy=15;exitPerimeter=0;" parent="WIyWlLk6GJQsqaUBKTNV-1" source="4hApF8zxHWb2KSiEJ-X--2" edge="1">
          <mxGeometry width="160" relative="1" as="geometry">
            <mxPoint x="370" y="310" as="sourcePoint" />
            <mxPoint x="240" y="315" as="targetPoint" />
          </mxGeometry>
        </mxCell>
        <mxCell id="4hApF8zxHWb2KSiEJ-X--22" value="" style="endArrow=open;endFill=1;endSize=12;html=1;rounded=0;exitX=0.25;exitY=1;exitDx=0;exitDy=0;entryX=0.25;entryY=0;entryDx=0;entryDy=0;" parent="WIyWlLk6GJQsqaUBKTNV-1" source="4hApF8zxHWb2KSiEJ-X--3" target="4hApF8zxHWb2KSiEJ-X--2" edge="1">
          <mxGeometry width="160" relative="1" as="geometry">
            <mxPoint x="370" y="310" as="sourcePoint" />
            <mxPoint x="530" y="310" as="targetPoint" />
          </mxGeometry>
        </mxCell>
        <mxCell id="4hApF8zxHWb2KSiEJ-X--23" value="" style="endArrow=open;endFill=1;endSize=12;html=1;rounded=0;exitX=0.25;exitY=1;exitDx=0;exitDy=0;entryX=1;entryY=0.25;entryDx=0;entryDy=0;edgeStyle=orthogonalEdgeStyle;" parent="WIyWlLk6GJQsqaUBKTNV-1" source="4hApF8zxHWb2KSiEJ-X--6" target="4hApF8zxHWb2KSiEJ-X--2" edge="1">
          <mxGeometry width="160" relative="1" as="geometry">
            <mxPoint x="370" y="310" as="sourcePoint" />
            <mxPoint x="530" y="310" as="targetPoint" />
          </mxGeometry>
        </mxCell>
        <mxCell id="4hApF8zxHWb2KSiEJ-X--24" value="Core" style="shape=module;align=left;spacingLeft=20;align=center;verticalAlign=top;whiteSpace=wrap;html=1;" parent="WIyWlLk6GJQsqaUBKTNV-1" vertex="1">
          <mxGeometry x="404" y="410" width="100" height="50" as="geometry" />
        </mxCell>
        <mxCell id="4hApF8zxHWb2KSiEJ-X--25" value="return" style="html=1;verticalAlign=bottom;endArrow=open;dashed=1;endSize=8;elbow=vertical;rounded=0;entryX=0.75;entryY=1;entryDx=0;entryDy=0;exitX=0.75;exitY=0;exitDx=0;exitDy=0;" parent="WIyWlLk6GJQsqaUBKTNV-1" source="4hApF8zxHWb2KSiEJ-X--24" target="4hApF8zxHWb2KSiEJ-X--2" edge="1">
          <mxGeometry relative="1" as="geometry">
            <mxPoint x="490" y="450" as="sourcePoint" />
            <mxPoint x="410" y="450" as="targetPoint" />
          </mxGeometry>
        </mxCell>
        <mxCell id="4hApF8zxHWb2KSiEJ-X--26" value="" style="endArrow=open;endFill=1;endSize=12;html=1;rounded=0;exitX=0.25;exitY=1;exitDx=0;exitDy=0;entryX=0.25;entryY=0;entryDx=0;entryDy=0;" parent="WIyWlLk6GJQsqaUBKTNV-1" source="4hApF8zxHWb2KSiEJ-X--2" target="4hApF8zxHWb2KSiEJ-X--24" edge="1">
          <mxGeometry width="160" relative="1" as="geometry">
            <mxPoint x="370" y="450" as="sourcePoint" />
            <mxPoint x="530" y="450" as="targetPoint" />
          </mxGeometry>
        </mxCell>
        <mxCell id="4hApF8zxHWb2KSiEJ-X--30" value="&lt;b&gt;&lt;font style=&quot;font-size: 36px;&quot;&gt;Program Structure (MVC)&lt;/font&gt;&lt;/b&gt;" style="text;html=1;strokeColor=none;fillColor=none;align=center;verticalAlign=middle;whiteSpace=wrap;rounded=0;" parent="WIyWlLk6GJQsqaUBKTNV-1" vertex="1">
          <mxGeometry x="230" y="40" width="364" height="30" as="geometry" />
        </mxCell>
      </root>
    </mxGraphModel>
  </diagram>
</mxfile>
